<svg id="Layer_1" data-name="Layer 1" xmlns="http://www.w3.org/2000/svg" viewBox="0 0 610 170"><title>Artboard 1</title><path d="M90.61,160.8q24.8-77.67,49.6-155.33C141.45,1.58,144.05,0,147.34,1s4.64,4.07,3.42,7.93Q137.65,50,124.54,91q-11.76,36.8-23.47,73.61c-.82,2.57-2.33,4.25-5.07,4.63a6.48,6.48,0,0,1-5.59-2C89.38,165.9,89.41,164.25,90.61,160.8Z"/><path d="M75.7,35.77c-.21,2.64-1.71,4.11-3.6,5.38Q56,51.89,39.92,62.67C31.9,68,24,73.56,15.83,78.69c-5.33,3.35-4.63,9.59,0,12.59,18.82,12.3,37.43,24.92,56.12,37.41,1.81,1.21,3.38,2.52,3.47,4.92a5.29,5.29,0,0,1-2.82,5.25,5.19,5.19,0,0,1-5.6-.16c-2.11-1.36-4.2-2.77-6.28-4.17Q34.92,117.33,9.2,100.08c-10-6.73-11.31-19.89-2.9-27.93a24.45,24.45,0,0,1,3.22-2.49Q37.78,50.73,66.08,31.82c3.06-2.05,6-1.9,8,.57C74.84,33.35,75.7,34.16,75.7,35.77Z"/><path d="M240.47,85.25a17.73,17.73,0,0,1-8.15,14.68q-28.68,19.25-57.4,38.42c-3.09,2.05-6.43,1.49-8.21-1.29s-1-5.92,2.19-8q28.18-18.87,56.41-37.7c2.19-1.46,3.89-3.14,4-6S228,80.5,225.66,79q-24.32-16.23-48.6-32.51c-2.83-1.89-5.67-3.75-8.46-5.68S165,35.61,166.69,33s5.09-3.41,8-1.45q29,19.34,57.91,38.75C237.77,73.76,240.22,78.83,240.47,85.25Z"/><path d="M334.82,121.29h3.06l-9.95,29.4h-3l-8.28-25.75-8.36,25.75h-3l-9.91-29.4h3.15l8.36,26.33,8.31-26.33h2.94l8.36,26.33Z"/><path d="M345.36,121.33H365v2.61H348.26v10.5h15V137h-15v11h17.3v2.61h-20.2Z"/><path d="M408.88,123.26a14.57,14.57,0,0,1,0,25.5,15.64,15.64,0,0,1-7.73,1.93H389.42V121.33h11.8A15.54,15.54,0,0,1,408.88,123.26Zm-1.49,23.23a12.16,12.16,0,0,0,4.37-16.59,12,12,0,0,0-4.43-4.37,12.2,12.2,0,0,0-6.15-1.59h-8.87v24.14h9A12,12,0,0,0,407.39,146.49Z"/><path d="M425.33,121.33h2.89v29.36h-2.89Z"/><path d="M459.53,123.26a14.57,14.57,0,0,1,0,25.5,15.64,15.64,0,0,1-7.73,1.93H440.07V121.33h11.8A15.54,15.54,0,0,1,459.53,123.26ZM458,146.49a12.16,12.16,0,0,0,4.37-16.59,12,12,0,0,0-4.43-4.37,12.2,12.2,0,0,0-6.15-1.59H443v24.14h9A12,12,0,0,0,458,146.49Z"/><path d="M490.13,121.33H493v29.36h-2.9Z"/><path d="M500.71,121.29H523v2.65h-9.71v26.75h-2.89V123.94h-9.71Z"/><path d="M541.16,121.29h21.55v2.39l-13.36,27h-3.11l13.32-26.8H543.85l0,4.41h-2.65Z"/><path d="M373.71,21.68h8.62l-28,82.6h-8.5L322.62,32l-23.48,72.33h-8.38l-27.85-82.6h8.85l23.48,74,23.37-74h8.26l23.48,74Z"/><path d="M462.51,27.23A40.52,40.52,0,0,1,483.45,63.1a40.26,40.26,0,0,1-21,35.75,44,44,0,0,1-21.71,5.43H407.81V21.8H441A43.46,43.46,0,0,1,462.51,27.23Zm-4.19,65.25A33.41,33.41,0,0,0,475.19,63.1a33.2,33.2,0,0,0-4.6-17.23A33.61,33.61,0,0,0,458.14,33.6a34.22,34.22,0,0,0-17.29-4.49H416V97h25.26A33.71,33.71,0,0,0,458.32,92.48Z"/><path d="M513.19,21.8h8.14v82.48h-8.14Z"/><path d="M548.7,21.68h60.54v6.73l-37.53,75.87H563L600.39,29H556.26l-.12,12.39H548.7Z"/></svg>