<svg id="Layer_1" data-name="Layer 1" xmlns="http://www.w3.org/2000/svg" viewBox="0 0 700 170"><title>Artboard 1</title><path d="M90.61,160.8q24.8-77.68,49.6-155.34C141.45,1.57,144.05,0,147.34,1S152,5.05,150.76,8.9Q137.65,50,124.54,91q-11.76,36.8-23.47,73.61c-.82,2.57-2.33,4.26-5.07,4.63a6.48,6.48,0,0,1-5.59-2C89.38,165.89,89.41,164.24,90.61,160.8Z"/><path d="M75.7,35.76c-.21,2.64-1.71,4.11-3.6,5.38Q56,51.88,39.92,62.66C31.9,68,24,73.55,15.83,78.68c-5.33,3.35-4.63,9.59,0,12.59,18.82,12.3,37.43,24.92,56.12,37.41,1.81,1.21,3.38,2.52,3.47,4.93a5.31,5.31,0,0,1-2.82,5.25,5.21,5.21,0,0,1-5.6-.17c-2.11-1.36-4.2-2.77-6.28-4.16Q34.92,117.31,9.2,100.07c-10-6.72-11.31-19.89-2.9-27.93a23.56,23.56,0,0,1,3.22-2.48Q37.78,50.72,66.08,31.81c3.06-2,6-1.9,8,.58C74.84,33.34,75.7,34.15,75.7,35.76Z"/><path d="M240.47,85.24a17.73,17.73,0,0,1-8.15,14.68q-28.68,19.24-57.4,38.42c-3.09,2.06-6.43,1.49-8.21-1.28s-1-5.93,2.19-8q28.18-18.89,56.41-37.71c2.19-1.46,3.89-3.14,4-6s-1.3-4.83-3.63-6.38q-24.32-16.22-48.6-32.51c-2.83-1.89-5.67-3.75-8.46-5.67S165,35.6,166.69,33s5.09-3.41,8-1.45q29,19.34,57.91,38.76C237.77,73.75,240.22,78.82,240.47,85.24Z"/><path d="M402.08,33.13H412.9L377.77,136.87H367.1L337.91,46l-29.5,90.85H297.89l-35-103.74H274l29.49,92.93,29.35-92.93h10.37l29.49,92.93Z"/><path d="M513.61,40.09a50.95,50.95,0,0,1,26.31,45.06,50.61,50.61,0,0,1-26.38,44.91,55.4,55.4,0,0,1-27.27,6.81H444.91V33.27h41.65A54.65,54.65,0,0,1,513.61,40.09Zm-5.26,82a42,42,0,0,0,21.19-36.9,41.67,41.67,0,0,0-5.78-21.64,42.19,42.19,0,0,0-15.63-15.42,43.08,43.08,0,0,0-21.72-5.63H455.14v85.22h31.72A42.26,42.26,0,0,0,508.35,122.05Z"/><path d="M577.27,33.27h10.22v103.6H577.27Z"/><path d="M621.88,33.13h76v8.44l-47.13,95.3h-11l47-94.56H631.36l-.14,15.57h-9.34Z"/></svg>